<svg xmlns="http://www.w3.org/2000/svg" width="256" height="256" fill="none" viewBox="0 0 256 256"><clipPath id="a"><path d="M0 0h256v256H0z"/></clipPath><mask id="b" width="256" height="256" x="0" y="0" maskUnits="userSpaceOnUse"><path fill="#fff" d="M0 0h256v256H0z"/></mask><g clip-path="url(#a)" mask="url(#b)"><rect width="256" height="256" x="-.296" fill="#111" rx="10.24"/><g fill="#fcebd8"><path d="M126.607 223.812a3.574 3.574 0 0 0 2.32 0c72.851-25.235 76.539-86.466 76.539-87.231V59.717a3.482 3.482 0 0 0-2.737-3.41c-54.946-12.06-72.828-24.074-72.99-24.19a3.483 3.483 0 0 0-3.99 0c-.185.116-17.673 12.107-72.967 24.19a3.48 3.48 0 0 0-2.737 3.41v77.026c.024.603 3.711 61.834 76.562 87.069zM57.027 62.5c45.042-10.066 64.942-19.992 70.74-23.448 5.914 3.456 25.699 13.382 70.741 23.448v73.918c0 2.32-3.595 56.57-70.741 80.413-67.169-23.843-70.648-78.116-70.764-80.25z"/><path d="M126.561 206.881a3.46 3.46 0 0 0 2.32 0c57.357-20.875 60.303-71.251 60.303-71.901v-62.9a3.457 3.457 0 0 0-2.714-3.387c-42.653-9.764-56.569-19.552-56.685-19.645a3.48 3.48 0 0 0-4.105 0c-.139.116-14.056 9.904-56.709 19.668a3.455 3.455 0 0 0-2.69 3.363v63.041c.023.51 2.922 50.979 60.28 71.761zM73.239 74.863c33.793-7.956 49.333-15.819 54.505-18.88 5.172 3.061 20.712 10.924 54.505 18.88v59.955c0 1.856-2.783 45.715-54.505 65.104-51.722-19.389-54.412-63.248-54.505-64.942z"/><path d="M105.014 167.428h45.46a9.761 9.761 0 0 0 9.741-9.741v-35.278a9.745 9.745 0 0 0-6.013-8.999 9.736 9.736 0 0 0-3.728-.742h-1.856V98.752a20.873 20.873 0 1 0-41.748 0v13.916h-1.856a9.736 9.736 0 0 0-6.888 2.853 9.748 9.748 0 0 0-2.853 6.888v35.278a9.762 9.762 0 0 0 9.741 9.741zm-2.783-45.019a2.784 2.784 0 0 1 2.783-2.783h45.46a2.784 2.784 0 0 1 2.783 2.783v35.278a2.784 2.784 0 0 1-2.783 2.783h-45.46a2.784 2.784 0 0 1-2.783-2.783zm11.597-23.657a13.915 13.915 0 1 1 27.832 0v13.916h-27.832z"/><path d="M124.265 147.319v4.082a3.48 3.48 0 1 0 6.958 0v-4.082a11.408 11.408 0 0 0 7.795-12.628 11.41 11.41 0 1 0-14.753 12.628zm3.479-15.238a4.457 4.457 0 0 1 4.116 2.755 4.453 4.453 0 1 1-4.116-2.755z"/></g></g></svg>
